<?xml version="1.0" encoding="UTF-8" standalone="no" ?>
<!DOCTYPE svg PUBLIC "-//W3C//DTD SVG 1.1//EN" "http://www.w3.org/Graphics/SVG/1.1/DTD/svg11.dtd">
<svg xmlns="http://www.w3.org/2000/svg" xmlns:xlink="http://www.w3.org/1999/xlink" version="1.1" width="1080" height="1080" viewBox="0 0 1080 1080" xml:space="preserve">
<desc>Created with Fabric.js 5.2.4</desc>
<defs>
</defs>
<rect x="0" y="0" width="100%" height="100%" fill="transparent"></rect>
<g transform="matrix(1 0 0 1 540 540)" id="7972554b-4a14-4676-a4ff-482bcfd19027"  >
<rect style="stroke: none; stroke-width: 1; stroke-dasharray: none; stroke-linecap: butt; stroke-dashoffset: 0; stroke-linejoin: miter; stroke-miterlimit: 4; fill: rgb(255,255,255); fill-rule: nonzero; opacity: 1; visibility: hidden;" vector-effect="non-scaling-stroke"  x="-540" y="-540" rx="0" ry="0" width="1080" height="1080" />
</g>
<g transform="matrix(1 0 0 1 540 540)" id="c7445471-93f3-4429-ae32-560925f09ae0"  >
</g>
<g transform="matrix(1 0 0 1 540 540)"  >
<g style="" vector-effect="non-scaling-stroke"   >
		<g transform="matrix(1 0 0 1 -461.35 0)"  >
<path style="stroke: none; stroke-width: 1; stroke-dasharray: none; stroke-linecap: butt; stroke-dashoffset: 0; stroke-linejoin: miter; stroke-miterlimit: 4; fill: rgb(0,255,163); fill-rule: evenodd; opacity: 1;" vector-effect="non-scaling-stroke"  transform=" translate(-66.88, -72.18)" d="M 72.1844 0 C 92.8086 0 107.417 6.87471 116.011 20.6241 C 119.929 26.8801 121.889 33.1361 121.889 39.3921 C 121.889 46.8855 119.07 54.3789 113.433 61.8724 C 127.182 68.7471 133.754 80.2809 133.754 94.0303 C 133.754 128.404 116.87 144.369 82.4965 144.369 L 10.3121 144.369 L 10.3121 10.3121 L 0 0 L 72.1844 0 Z M 43.8489 114.647 L 73.1626 114.647 C 87.1077 114.647 94.1324 104.682 94.1324 89.2603 C 94.1324 74.8199 78.8327 64.8658 73.1311 64.8844 C 73.1323 64.8821 76.2718 64.8786 79.4112 64.8751 C 82.5507 64.8716 85.6901 64.8682 85.6913 64.8658 L 70.4154 64.8658 C 77.822 63.1319 81.5615 57.1051 81.5615 49.7852 C 81.5615 38.5483 73.2075 34.2047 64.5676 34.2047 L 43.8489 34.1928 L 43.8489 114.647 Z" stroke-linecap="round" />
</g>
		<g transform="matrix(1 0 0 1 -313.12 0)"  >
<path style="stroke: none; stroke-width: 1; stroke-dasharray: none; stroke-linecap: butt; stroke-dashoffset: 0; stroke-linejoin: miter; stroke-miterlimit: 4; fill: rgb(0,255,163); fill-rule: nonzero; opacity: 1;" vector-effect="non-scaling-stroke"  transform=" translate(-215.11, -72.18)" d="M 239.883 0 L 291.443 144.369 L 250.195 144.369 L 246.792 134.057 L 232.974 92.8086 L 219.259 51.5603 L 182.96 144.369 L 138.781 144.369 L 195.85 7.11532 L 188.735 0 L 239.883 0 Z" stroke-linecap="round" />
</g>
		<g transform="matrix(1 0 0 1 -164.88 0.22)"  >
<path style="stroke: none; stroke-width: 1; stroke-dasharray: none; stroke-linecap: butt; stroke-dashoffset: 0; stroke-linejoin: miter; stroke-miterlimit: 4; fill: rgb(0,255,163); fill-rule: nonzero; opacity: 1;" vector-effect="non-scaling-stroke"  transform=" translate(-363.35, -72.41)" d="M 296.472 144.314 L 368.494 100.412 L 368.7 63.1416 L 347.916 63.1416 C 341.057 63.1416 337.627 59.6617 337.627 52.7018 C 337.627 45.7419 341.057 42.262 347.916 42.262 L 378.783 42.262 L 378.783 144.314 L 399.36 144.314 L 419.938 144.314 L 419.938 10.9425 L 430.227 0.502686 L 347.916 0.502686 C 313.62 0.502686 296.472 17.9024 296.472 52.7018 C 296.472 80.5413 303.331 96.2359 317.05 99.7854 L 296.472 144.314 Z" stroke-linecap="round" />
</g>
		<g transform="matrix(1 0 0 1 -92.97 0.22)"  >
<path style="stroke: none; stroke-width: 1; stroke-dasharray: none; stroke-linecap: butt; stroke-dashoffset: 0; stroke-linejoin: miter; stroke-miterlimit: 4; fill: rgb(0,255,163); fill-rule: nonzero; opacity: 1;" vector-effect="non-scaling-stroke"  transform=" translate(-435.26, -72.41)" d="M 502.133 144.314 L 430.112 100.412 L 429.906 63.1416 L 450.689 63.1416 C 457.548 63.1416 460.978 59.6617 460.978 52.7018 C 460.978 45.7419 457.548 42.262 450.689 42.262 L 419.823 42.262 L 419.823 144.314 L 399.245 144.314 L 378.668 144.314 L 378.668 10.9425 L 368.379 0.502686 L 450.689 0.502686 C 484.985 0.502686 502.133 17.9024 502.133 52.7018 C 502.133 80.5413 495.274 96.2359 481.556 99.7854 L 502.133 144.314 Z" stroke-linecap="round" />
</g>
		<g transform="matrix(1 0 0 1 55.26 0)"  >
<path style="stroke: none; stroke-width: 1; stroke-dasharray: none; stroke-linecap: butt; stroke-dashoffset: 0; stroke-linejoin: miter; stroke-miterlimit: 4; fill: rgb(0,255,163); fill-rule: nonzero; opacity: 1;" vector-effect="non-scaling-stroke"  transform=" translate(-583.49, -72.18)" d="M 608.262 0 L 659.822 144.369 L 618.574 144.369 L 615.171 134.057 L 601.352 92.8086 L 587.637 51.5603 L 551.339 144.369 L 507.16 144.369 L 564.229 7.11532 L 557.114 0 L 608.262 0 Z" stroke-linecap="round" />
</g>
		<g transform="matrix(1 0 0 1 193.33 0)"  >
<path style="stroke: none; stroke-width: 1; stroke-dasharray: none; stroke-linecap: butt; stroke-dashoffset: 0; stroke-linejoin: miter; stroke-miterlimit: 4; fill: rgb(0,255,163); fill-rule: nonzero; opacity: 1;" vector-effect="non-scaling-stroke"  transform=" translate(-721.56, -72.18)" d="M 737.032 0 L 778.28 0 L 767.968 41.2483 L 737.032 41.2483 C 728.507 41.2483 721.22 44.2731 715.171 50.3229 C 709.121 56.3726 706.096 63.6598 706.096 72.1844 C 706.096 80.7091 709.121 87.9963 715.171 94.046 C 721.22 100.096 728.507 103.121 737.032 103.121 L 767.968 103.121 L 778.28 144.369 L 737.032 144.369 C 717.095 144.369 700.081 137.322 685.987 123.229 C 671.894 109.136 664.848 92.1211 664.848 72.1844 C 664.848 52.2478 671.894 35.2329 685.987 21.1397 C 700.081 7.04658 717.095 0 737.032 0 Z" stroke-linecap="round" />
</g>
		<g transform="matrix(1 0 0 1 327.27 0)"  >
<path style="stroke: none; stroke-width: 1; stroke-dasharray: none; stroke-linecap: butt; stroke-dashoffset: 0; stroke-linejoin: miter; stroke-miterlimit: 4; fill: rgb(0,255,163); fill-rule: nonzero; opacity: 1;" vector-effect="non-scaling-stroke"  transform=" translate(-855.5, -72.18)" d="M 834.873 91.0555 L 834.873 144.369 L 793.625 144.369 L 793.625 10.3121 L 783.312 0 L 834.873 0 L 834.873 67.0284 L 845.185 51.5603 L 876.121 0 L 927.681 0 L 876.84 80.4537 L 897.959 110.121 L 923.855 144.369 L 870.909 144.369 L 834.873 91.0555 Z" stroke-linecap="round" />
</g>
		<g transform="matrix(1 0 0 1 466.36 0)"  >
<path style="stroke: none; stroke-width: 1; stroke-dasharray: none; stroke-linecap: butt; stroke-dashoffset: 0; stroke-linejoin: miter; stroke-miterlimit: 4; fill: rgb(0,255,163); fill-rule: nonzero; opacity: 1;" vector-effect="non-scaling-stroke"  transform=" translate(-994.59, -72.18)" d="M 984.271 92.8086 C 949.898 92.8086 932.711 77.203 932.711 45.9918 C 932.711 15.3306 949.898 0 984.271 0 L 1046.14 0 L 1004.9 41.2483 L 984.271 41.2483 C 977.397 41.2483 973.959 42.8294 973.959 45.9918 C 973.959 49.7041 977.397 51.5603 984.271 51.5603 L 1004.9 51.5603 C 1039.27 51.5603 1056.46 66.8909 1056.46 97.5521 C 1056.46 128.763 1039.27 144.369 1004.9 144.369 L 943.023 144.369 L 984.271 103.121 L 1004.9 103.121 C 1011.77 103.121 1015.21 101.264 1015.21 97.5521 C 1015.21 94.3898 1011.77 92.8086 1004.9 92.8086 L 984.271 92.8086 Z" stroke-linecap="round" />
</g>
</g>
</g>
<g transform="matrix(NaN NaN NaN NaN 0 0)"  >
<g style=""   >
</g>
</g>
<g transform="matrix(NaN NaN NaN NaN 0 0)"  >
<g style=""   >
</g>
</g>
</svg>